PathFileType	4	(X/Y/Z)	Formatted/subject18/trials/walk2/markers.trc
DataRate	CameraRate	NumFrames	NumMarkers	Units	OrigDataRate	OrigDataStartFrame	OrigNumFrames
200.00000000000426	200.00000000000426	4	64	m	200.00000000000426	0	215
Frame#	Time	CLAV			C7			RACR			RASH			RPSH			RLEL			RMEL			RUA1			RUA2			RUA3			RFAsuperior			RFAradius			RFAulna			RASI			RPSI			RCAL			RTOE			RMT5			RTH1			RTH2			RTH3			RTB1			RTB2			RTB3			RLFC			RMFC			RLMAL			RMMAL			RHJC			RKJC			REJC			RAJC			RSJC			LACR			LASH			LPSH			LLEL			LMEL			LUA1			LUA2			LUA3			LFAsuperior			LFAradius			LFAulna			LASI			LPSI			LCAL			LTOE			LMT5			LTH1			LTH2			LTH3			LTB1			LTB2			LTB3			LLFC			LMFC			LLMAL			LMMAL			LHJC			LKJC			LEJC			LAJC			LSJC			
		X1	Y1	Z1	X2	Y2	Z2	X3	Y3	Z3	X4	Y4	Z4	X5	Y5	Z5	X6	Y6	Z6	X7	Y7	Z7	X8	Y8	Z8	X9	Y9	Z9	X10	Y10	Z10	X11	Y11	Z11	X12	Y12	Z12	X13	Y13	Z13	X14	Y14	Z14	X15	Y15	Z15	X16	Y16	Z16	X17	Y17	Z17	X18	Y18	Z18	X19	Y19	Z19	X20	Y20	Z20	X21	Y21	Z21	X22	Y22	Z22	X23	Y23	Z23	X24	Y24	Z24	X25	Y25	Z25	X26	Y26	Z26	X27	Y27	Z27	X28	Y28	Z28	X29	Y29	Z29	X30	Y30	Z30	X31	Y31	Z31	X32	Y32	Z32	X33	Y33	Z33	X34	Y34	Z34	X35	Y35	Z35	X36	Y36	Z36	X37	Y37	Z37	X38	Y38	Z38	X39	Y39	Z39	X40	Y40	Z40	X41	Y41	Z41	X42	Y42	Z42	X43	Y43	Z43	X44	Y44	Z44	X45	Y45	Z45	X46	Y46	Z46	X47	Y47	Z47	X48	Y48	Z48	X49	Y49	Z49	X50	Y50	Z50	X51	Y51	Z51	X52	Y52	Z52	X53	Y53	Z53	X54	Y54	Z54	X55	Y55	Z55	X56	Y56	Z56	X57	Y57	Z57	X58	Y58	Z58	X59	Y59	Z59	X60	Y60	Z60	X61	Y61	Z61	X62	Y62	Z62	X63	Y63	Z63	X64	Y64	Z64	

1	2.44	0.8174710074689838	1.408821310684798	-0.4718263827664696	0.7185347929058018	1.508645476001217	-0.5051067516051099	0.7189708486046612	1.472531249618476	-0.3428329058138662	0.7744151607059827	1.41884361871439	-0.3542201351438355	0.6611569045273668	1.446494716187065	-0.3591663479329262	0.5839480526900727	1.168062735591188	-0.2802969002781187	0.5747243823840704	1.157553112060657	-0.3548405730452118	0.7058122792112755	1.36389838380335	-0.2915024792020042	0.642867586382121	1.334505157262717	-0.3072411245660229	0.6724306678232896	1.266694623958118	-0.3058338030769622	0.6214228403914874	1.086762664728162	-0.2918683850267642	0.6149435534287837	0.9218567695939017	-0.2839308572504399	0.5529261434270983	0.9257769180582619	-0.2716089862065071	0.7843353663076672	1.023524340760284	-0.3989050836599771	0.6142970225581387	1.07056968598624	-0.4482417492138004	0.9443979359167545	0.04938696721843579	-0.408177687567799	1.162053771974052	0.07636085392970542	-0.4481262363459071	1.147789710866884	0.08039932195989485	-0.3753269543406526	0.799126387324675	0.8273799864754959	-0.3397199266774219	0.8703283768007618	0.7263129932395436	-0.3756819327124612	0.8471207575384957	0.5822404685138783	-0.3575968487671918	0.9442045186359295	0.4015077999644266	-0.4162937307212021	0.9223771656799911	0.3020111246867767	-0.351778573872589	1.001366905800647	0.210920049112929	-0.4122847482195859	0.8768677022446234	0.5063881709785136	-0.3627593102149537	0.8717230414782501	0.5150411131310699	-0.4751026664968878	0.9957102736315534	0.1013469478849841	-0.3671747755825107	1.00914839359908	0.1124280043821446	-0.4481762297199291	0.7212929225165156	0.9279153940918405	-0.4083442088971037	0.8710502430939662	0.522600684474068	-0.4248140229894701	0.5938970397124356	1.160412598814491	-0.3199934384288588	0.9975144902757718	0.08736588391667061	-0.412298211472284	0.7290689513176852	1.427045338839301	-0.3385955834829305	0.764251741535944	1.474169603031932	-0.66463645359134	0.802876307168723	1.412285141269821	-0.6235788837871648	0.7030256418731833	1.452418427688772	-0.6570205770687559	0.7854670086735337	1.139636214031418	-0.7764664955902219	0.7480507038203991	1.125211840332669	-0.7156031071079565	0.7711947702776741	1.347023389732804	-0.7303677384928013	0.7256856507212328	1.275505457648994	-0.718438732085168	0.7992520587267585	1.266816945584693	-0.7271787220270485	0.8540617742014337	1.097879176130534	-0.7401456942199185	0.9627842565706521	0.979675226811332	-0.7145974998182445	0.927213925128034	0.9490869794442702	-0.7526715374206424	0.7500226935802504	1.022245661457946	-0.6510759036072238	0.5958601632543472	1.068021652358349	-0.546710847131223	0.3033764961082366	0.087776331260702	-0.592105936427306	0.5149346451473306	0.0106308118608654	-0.5387860509422204	0.4977172524808873	0.02789729060903169	-0.6314228520273666	0.6466010223949864	0.788735699160063	-0.687526378818107	0.6744223516062654	0.6771791592172779	-0.6596756556312414	0.5959381049996193	0.5839437845038508	-0.6520953371845994	0.5388801268590898	0.3650571282194219	-0.5826831977279459	0.4528925618488039	0.2833419276055467	-0.6421796285162928	0.4466128304187191	0.1696187493836497	-0.5934401418897279	0.5704480604247542	0.5028387741950535	-0.6427872220127595	0.5780858677729648	0.499356889153513	-0.5283103922727519	0.3748929173212115	0.1124498371363947	-0.6332055540403156	0.3838163403877571	0.1126887187775154	-0.5559880988991368	0.6893843873045465	0.9212397683410559	-0.6226863501985891	0.5776503595054927	0.5010198651287089	-0.5871231710089944	0.7777441454360016	1.135043600287062	-0.7363951891931835	0.366655654841896	0.09969744988191503	-0.5879814214581975	0.7728076053830639	1.424340423475675	-0.6589776058800219	
2	2.445	0.8240357938367182	1.408214414309986	-0.4711114907733712	0.7249376868498975	1.507926483228098	-0.504245913764364	0.7254975673968371	1.471645417095607	-0.3420096684498855	0.7810162335738355	1.418051614963737	-0.3534763387282388	0.6677150899663641	1.445540301441447	-0.3583449913127494	0.5903361695940893	1.16725664404539	-0.2797357478464049	0.5810798184542619	1.15682895350335	-0.3542868756970983	0.7123677927272388	1.362996865494917	-0.2907858373341523	0.6493925004414431	1.333674198719317	-0.3065336897085451	0.6788968079666176	1.265836527755768	-0.3052029001586611	0.6276816116072155	1.085914337051983	-0.2914150111203812	0.6209352661881288	0.9210117058490797	-0.2836337000083362	0.5589330734039916	0.9250223089258052	-0.2712644491723833	0.7915583511015304	1.022773711101196	-0.3986476540068485	0.6214593484502404	1.070008155317004	-0.4475929908341926	0.9483618473913524	0.04820526481470221	-0.4079818356357866	1.166075367976132	0.07357182001094024	-0.4486623090308662	1.152082821815904	0.07774145641733925	-0.3758177422604281	0.8061380887609897	0.826539406008908	-0.3392241087927126	0.8771086545881801	0.7253730839207158	-0.3753638426944671	0.8537265429520791	0.5813319357253416	-0.3572536048177206	0.9500172763549982	0.4002011524542819	-0.4162134855598082	0.9278779321343915	0.3008331599022965	-0.3516063753842212	1.006221456408994	0.2093261437799467	-0.4123247287236952	0.8833486580528553	0.5054363204108603	-0.3624965659977382	0.8779659063078223	0.5141180926607437	-0.4748265417710759	1.000143068123156	0.09979468208715647	-0.3671685140150757	1.013394205523455	0.1107866892098405	-0.4482128943924001	0.7283015892917013	0.9272037395614192	-0.4076556792817076	0.8774545282656265	0.5216623911587046	-0.4245468625089898	0.6002659538997959	1.159637170338861	-0.3194429900158648	1.001740727607161	0.08579317202069447	-0.4122933964405818	0.7356647362747875	1.426170137244281	-0.337823708846531	0.7706362957026319	1.473682977133365	-0.6638309082473214	0.8093701175295129	1.411813338622555	-0.6228540050778895	0.7094457279354591	1.451833440097411	-0.6562110242865293	0.7927736717606344	1.1393473529958	-0.7760837378274952	0.7553776172277555	1.124737537781996	-0.7152521433407526	0.7778986528885741	1.346632831110199	-0.7297189104624187	0.7325881271074418	1.27497082562199	-0.7178990547498717	0.8061818119898783	1.266502026188611	-0.7266250523715195	0.8616385326857593	1.098057832308749	-0.7396231358408067	0.9711549977826848	0.9806467592427708	-0.7138113974542399	0.935862465711413	0.94977800615771	-0.7519175512649682	0.7565029249542399	1.02097963480139	-0.6507131521441107	0.602728858551387	1.067267825149508	-0.5460014906690629	0.3042351672158889	0.08977676894721848	-0.5919813677836165	0.5151253190644887	0.01036639419272314	-0.5393446124591688	0.4978522033449974	0.02798502462496449	-0.6319047018547256	0.652128852100906	0.7881000690600863	-0.686922302209075	0.6795555938218563	0.6763555859843466	-0.6594360313483705	0.6006852664261655	0.5834525274618003	-0.6517831583733761	0.5422972039987179	0.3648071588069638	-0.5826464342619377	0.4554064198979817	0.2839981935021014	-0.6420683442702284	0.4482205660980594	0.1702405768791881	-0.5935348299344121	0.5748686841864209	0.5024399545109668	-0.6425704940999248	0.582913866452466	0.4986543415040817	-0.5281312161035926	0.3758743061903107	0.1138074918736086	-0.633216614922842	0.3850085039286245	0.1138117380532063	-0.5560234394745529	0.6957414646245444	0.9202593920379433	-0.6219313231982669	0.5822950414112407	0.5004190003165323	-0.5869256368467285	0.7850501882072712	1.134680494059011	-0.7360211300314362	0.3676433886560997	0.1010411005696817	-0.5879952782412887	0.7792682649693068	1.423860687402833	-0.658227244140138	
3	2.45	0.8306267359210561	1.40766948924052	-0.4703937161187977	0.7313455179590952	1.507257918373472	-0.5033513559928566	0.732061293513	1.470785885978968	-0.3411585477736038	0.7876609843789436	1.417296878712699	-0.352721545895895	0.67431202563295	1.444605318770289	-0.357490556048899	0.5969161447991583	1.166405036921773	-0.2791143526996367	0.5875988658325644	1.156061860732845	-0.3536696640413394	0.7190187425933063	1.362107682334313	-0.290045318153904	0.6560195985678423	1.332827595533789	-0.3057769884000214	0.6854973812358013	1.264976580877726	-0.3045421182658887	0.6340977463755921	1.085015959310929	-0.2909237508481796	0.6270181300346157	0.9201197005785213	-0.2833051784559109	0.5650385022485965	0.9242460502638672	-0.2708611360619037	0.798725138812395	1.02207015066571	-0.3982717481563658	0.6286274041214711	1.069511085267157	-0.4470213922334185	0.9508619013682426	0.04707536346527473	-0.4077773770528803	1.168709213180143	0.06969016038458378	-0.4493545315997879	1.155065117084553	0.07407940405546592	-0.3764567860550017	0.8131859134864567	0.8258361786072841	-0.3386687197066255	0.8840793294469755	0.7246821670710972	-0.3749938601572673	0.8607026719203356	0.5806328339060078	-0.356941776301589	0.9558677020587473	0.3988617458713504	-0.4162132164904609	0.9330404305208655	0.2997316664824838	-0.3514801474603029	1.010314208815741	0.207475726024015	-0.4124355808997946	0.8903031339018334	0.504735746915989	-0.3622847722639634	0.8847359692147455	0.5134939678822555	-0.4745998241752679	1.003383118946823	0.09802519087599076	-0.3672060332504577	1.016444654283797	0.1088582381617442	-0.4483025796311563	0.7352534279400532	0.926559686136871	-0.4069036906987124	0.884404224146396	0.5209866509813618	-0.4243439585115277	0.6068126342465916	1.158824561079813	-0.3188373681850299	1.00468902501408	0.08398961698900104	-0.4123297198118434	0.742305536074885	1.425322432783056	-0.3370324629239477	0.7770054323845855	1.473278305727013	-0.6630038196879536	0.8158650351468272	1.411423879879329	-0.6221231519788035	0.7158553286561687	1.45131937102104	-0.6553735847955582	0.8000000819976438	1.139126215250878	-0.7756537640741547	0.76266100229791	1.124340532653712	-0.7148296635849585	0.7845523311711934	1.346315078295637	-0.7290450217099076	0.7394471591244798	1.274511897658307	-0.7172967251857462	0.8130621970083395	1.266260850409029	-0.726051179455387	0.8691404049008821	1.098289282091437	-0.7390926105829624	0.9794272827103411	0.9816444334612009	-0.7130878818699415	0.9443855276933717	0.950510390451365	-0.7512096403087579	0.7632012718018413	1.019717133521122	-0.6502670559425576	0.6097101199036914	1.066562289242184	-0.5453881267571103	0.3051969470019061	0.09195493743608243	-0.5918983566159356	0.5153026931382879	0.01009926475653847	-0.5398741692881712	0.498023586285673	0.02807928663180821	-0.6323636178410794	0.6578355063668194	0.7874941386734863	-0.6862992792506848	0.6848818397834286	0.6755681232879115	-0.6591770803400936	0.6056428496936458	0.5829842413223537	-0.6514647174818338	0.5458892706853938	0.3645956134416329	-0.5826099829385186	0.4580909893736911	0.2847282115251716	-0.6419709173494773	0.4499497574372892	0.1709488205402719	-0.5936397226817735	0.5795131419771165	0.5020606714937542	-0.6423531699450281	0.5879483485963958	0.4979664737623052	-0.5279526061086577	0.3769748032905984	0.1152800139172914	-0.6332498034973445	0.3862999419626447	0.1150467874743712	-0.5560798137583506	0.7022430296260027	0.9193100717129066	-0.6211494085768458	0.5871573267181653	0.4998313701501715	-0.5867267521574093	0.792300076880191	1.134391198994337	-0.7355946345754086	0.3687356127453794	0.102503505543311	-0.5880328308590139	0.7857224511575998	1.423463654525853	-0.6574642702245285	
4	2.455	0.8372461462458703	1.407166847173591	-0.4696526648681721	0.7377803316705608	1.50663411327061	-0.5024190529709585	0.7386582101140723	1.469953461989382	-0.3402740941510802	0.7943386338927655	1.416571149762156	-0.3519412102212848	0.6809418754827786	1.443698928895741	-0.3566037831596823	0.6036250687623758	1.16553291016559	-0.2784382055001826	0.5942372871267184	1.155270758055875	-0.3529958692264091	0.7257322619131278	1.361238062093535	-0.2892725354293094	0.6627162090950912	1.331979664076494	-0.30497681231272	0.6921899776523911	1.264125148353578	-0.3038426041465428	0.6406424118783851	1.08410103565923	-0.2903831393575602	0.6332306019161165	0.9192121505646746	-0.2829225494254997	0.5712760857644551	0.9234543820362757	-0.2703927204610658	0.8059373552461218	1.021478245942118	-0.3978812034152865	0.6358263360412285	1.069044060594404	-0.4464625150692423	0.9521781194801369	0.04589962368872724	-0.4075783844995315	1.170161691948264	0.06520414898594534	-0.4500994089541758	1.156896440490188	0.06984796972134724	-0.3771475333339293	0.820336843132196	0.8252267306660727	-0.3380832853800892	0.8912233794600023	0.7241347272648271	-0.374593997793601	0.8679199863969065	0.5800589643426377	-0.3566584843051855	0.9616533981184695	0.3974541757549169	-0.4162662979404274	0.9378373982653992	0.298653469676438	-0.351386055794124	1.013708541504186	0.2054020098676863	-0.4125881398666023	0.8975413569464497	0.5041779477870765	-0.3621127030580241	0.891837512493831	0.5130466443974977	-0.4744122267519329	1.005581583434738	0.09607160075207127	-0.3672672194581061	1.018460784846647	0.1066959331044294	-0.4484205199873471	0.7422870819421665	0.9259904131101373	-0.4061246229425235	0.8916966700421107	0.5204618925244423	-0.4241901796451316	0.6134838306284622	1.157994490820319	-0.3181786021372209	1.006534804336958	0.08199629603713215	-0.4123873588747458	0.7489799084893034	1.424501649474285	-0.3362133134264734	0.7833956995477627	1.47293640301975	-0.6621439839057921	0.8223828312668953	1.411093244504973	-0.6213678263947782	0.722286656324029	1.450866882123936	-0.6545038551346573	0.8071600783656193	1.138968436152957	-0.7752040406004364	0.769890561639241	1.124013925396135	-0.7143785507625949	0.7911938057500412	1.346061485110606	-0.7283448893880831	0.7462826131229668	1.274126804363498	-0.7166580485469642	0.8199145547151419	1.266078699570233	-0.7254591416332972	0.8765668579335323	1.098558426471502	-0.7385659889395669	0.987582943747944	0.9826410748643312	-0.7124114801276268	0.9527714220528216	0.9512604587969011	-0.7505420005512147	0.7699767747563734	1.018521222993441	-0.6498081960727727	0.6167355927304711	1.065866985302685	-0.5447886215387916	0.3062680059258847	0.09431457626353877	-0.5918542985067469	0.5154753338404489	0.009834761734474111	-0.5404077567333339	0.4982266014156163	0.02818899802138436	-0.6328293454122843	0.6636834291698636	0.7869379037819302	-0.6856697824932688	0.6903678993959328	0.6748352911606358	-0.6589210621995047	0.6107788815937626	0.5825565289344539	-0.6511562970125768	0.5496431800944986	0.3644352679690157	-0.5825933936342919	0.4609298577724675	0.2855428766241521	-0.6418976738743629	0.4517991783710604	0.1717522234717616	-0.5937702202001288	0.5843510008390929	0.5017177947926299	-0.6421522835277236	0.5931748483637356	0.4973043651193904	-0.5277929134471097	0.3781912681561428	0.1168739666978802	-0.6333122352348621	0.3876994813324782	0.116396891338009	-0.5561657109875743	0.7088601554049618	0.9184089363472295	-0.620352059195692	0.5922140922184106	0.4992715127621637	-0.5865449327112908	0.7994927371313042	1.134166417245675	-0.7351466217274425	0.3699371438696755	0.1040883637860178	-0.5881005571849369	0.7921982319276303	1.423129056517175	-0.6566744174774641	
